<svg xmlns="http://www.w3.org/2000/svg" xmlns:xlink="http://www.w3.org/1999/xlink" xmlns:s="https://github.com/nturley/netlistsvg" width="770" height="622.5">
  <style>svg {
    stroke:#000;
    fill:none;
  }
  text {
    fill:#000;
    stroke:none;
    font-size:10px;
    font-weight: bold;
    font-family: "Courier New", monospace;
  }
  .nodelabel {
    text-anchor: middle;
  }
  .inputPortLabel {
    text-anchor: end;
  }
  .splitjoinBody {
    fill:#000;
  }</style>
  <g s:type="nand" transform="translate(586,77)" s:width="30" s:height="25" id="cell_$abc$169$auto$blifparse.cc:396:parse_blif$170">
    <s:alias val="$nand"/>
    <s:alias val="$logic_nand"/>
    <s:alias val="$_NAND_"/>
    <s:alias val="$_ANDNOT_"/>
    <path d="M0,0 L0,25 L15,25 A15 12.5 0 0 0 15,0 Z" class="cell_$abc$169$auto$blifparse.cc:396:parse_blif$170"/>
    <circle cx="34" cy="12.5" r="3" class="cell_$abc$169$auto$blifparse.cc:396:parse_blif$170"/>
    <g s:x="0" s:y="5" s:pid="A"/>
    <g s:x="0" s:y="20" s:pid="B"/>
    <g s:x="36" s:y="12.5" s:pid="Y"/>
  </g>
  <g s:type="nand" transform="translate(439,122)" s:width="30" s:height="25" id="cell_$abc$169$auto$blifparse.cc:396:parse_blif$171">
    <s:alias val="$nand"/>
    <s:alias val="$logic_nand"/>
    <s:alias val="$_NAND_"/>
    <s:alias val="$_ANDNOT_"/>
    <path d="M0,0 L0,25 L15,25 A15 12.5 0 0 0 15,0 Z" class="cell_$abc$169$auto$blifparse.cc:396:parse_blif$171"/>
    <circle cx="34" cy="12.5" r="3" class="cell_$abc$169$auto$blifparse.cc:396:parse_blif$171"/>
    <g s:x="0" s:y="5" s:pid="A"/>
    <g s:x="0" s:y="20" s:pid="B"/>
    <g s:x="36" s:y="12.5" s:pid="Y"/>
  </g>
  <g s:type="reduce_xor" transform="translate(369,239.5)" s:width="33" s:height="25" id="cell_$abc$169$auto$blifparse.cc:396:parse_blif$172">
    <s:alias val="$xor"/>
    <s:alias val="$reduce_xor"/>
    <s:alias val="$_XOR_"/>
    <path d="M3,0 A30 25 0 0 1 3,25 A30 25 0 0 0 33,12.5 A30 25 0 0 0 3,0" class="cell_$abc$169$auto$blifparse.cc:396:parse_blif$172"/>
    <path d="M0,0 A30 25 0 0 1 0,25" class="cell_$abc$169$auto$blifparse.cc:396:parse_blif$172"/>
    <g s:x="3" s:y="5" s:pid="A"/>
    <g s:x="3" s:y="20" s:pid="B"/>
    <g s:x="33" s:y="12.5" s:pid="Y"/>
  </g>
  <g s:type="nand" transform="translate(297,342)" s:width="30" s:height="25" id="cell_$abc$169$auto$blifparse.cc:396:parse_blif$173">
    <s:alias val="$nand"/>
    <s:alias val="$logic_nand"/>
    <s:alias val="$_NAND_"/>
    <s:alias val="$_ANDNOT_"/>
    <path d="M0,0 L0,25 L15,25 A15 12.5 0 0 0 15,0 Z" class="cell_$abc$169$auto$blifparse.cc:396:parse_blif$173"/>
    <circle cx="34" cy="12.5" r="3" class="cell_$abc$169$auto$blifparse.cc:396:parse_blif$173"/>
    <g s:x="0" s:y="5" s:pid="A"/>
    <g s:x="0" s:y="20" s:pid="B"/>
    <g s:x="36" s:y="12.5" s:pid="Y"/>
  </g>
  <g s:type="nand" transform="translate(150,392)" s:width="30" s:height="25" id="cell_$abc$169$auto$blifparse.cc:396:parse_blif$174">
    <s:alias val="$nand"/>
    <s:alias val="$logic_nand"/>
    <s:alias val="$_NAND_"/>
    <s:alias val="$_ANDNOT_"/>
    <path d="M0,0 L0,25 L15,25 A15 12.5 0 0 0 15,0 Z" class="cell_$abc$169$auto$blifparse.cc:396:parse_blif$174"/>
    <circle cx="34" cy="12.5" r="3" class="cell_$abc$169$auto$blifparse.cc:396:parse_blif$174"/>
    <g s:x="0" s:y="5" s:pid="A"/>
    <g s:x="0" s:y="20" s:pid="B"/>
    <g s:x="36" s:y="12.5" s:pid="Y"/>
  </g>
  <g s:type="reduce_xor" transform="translate(77,574.5)" s:width="33" s:height="25" id="cell_$abc$169$auto$blifparse.cc:396:parse_blif$175">
    <s:alias val="$xor"/>
    <s:alias val="$reduce_xor"/>
    <s:alias val="$_XOR_"/>
    <path d="M3,0 A30 25 0 0 1 3,25 A30 25 0 0 0 33,12.5 A30 25 0 0 0 3,0" class="cell_$abc$169$auto$blifparse.cc:396:parse_blif$175"/>
    <path d="M0,0 A30 25 0 0 1 0,25" class="cell_$abc$169$auto$blifparse.cc:396:parse_blif$175"/>
    <g s:x="3" s:y="5" s:pid="A"/>
    <g s:x="3" s:y="20" s:pid="B"/>
    <g s:x="33" s:y="12.5" s:pid="Y"/>
  </g>
  <g s:type="nand" transform="translate(150,524.5)" s:width="30" s:height="25" id="cell_$abc$169$auto$blifparse.cc:396:parse_blif$176">
    <s:alias val="$nand"/>
    <s:alias val="$logic_nand"/>
    <s:alias val="$_NAND_"/>
    <s:alias val="$_ANDNOT_"/>
    <path d="M0,0 L0,25 L15,25 A15 12.5 0 0 0 15,0 Z" class="cell_$abc$169$auto$blifparse.cc:396:parse_blif$176"/>
    <circle cx="34" cy="12.5" r="3" class="cell_$abc$169$auto$blifparse.cc:396:parse_blif$176"/>
    <g s:x="0" s:y="5" s:pid="A"/>
    <g s:x="0" s:y="20" s:pid="B"/>
    <g s:x="36" s:y="12.5" s:pid="Y"/>
  </g>
  <g s:type="nand" transform="translate(226,399.5)" s:width="30" s:height="25" id="cell_$abc$169$auto$blifparse.cc:396:parse_blif$177">
    <s:alias val="$nand"/>
    <s:alias val="$logic_nand"/>
    <s:alias val="$_NAND_"/>
    <s:alias val="$_ANDNOT_"/>
    <path d="M0,0 L0,25 L15,25 A15 12.5 0 0 0 15,0 Z" class="cell_$abc$169$auto$blifparse.cc:396:parse_blif$177"/>
    <circle cx="34" cy="12.5" r="3" class="cell_$abc$169$auto$blifparse.cc:396:parse_blif$177"/>
    <g s:x="0" s:y="5" s:pid="A"/>
    <g s:x="0" s:y="20" s:pid="B"/>
    <g s:x="36" s:y="12.5" s:pid="Y"/>
  </g>
  <g s:type="reduce_xor" transform="translate(227,459.5)" s:width="33" s:height="25" id="cell_$abc$169$auto$blifparse.cc:396:parse_blif$178">
    <s:alias val="$xor"/>
    <s:alias val="$reduce_xor"/>
    <s:alias val="$_XOR_"/>
    <path d="M3,0 A30 25 0 0 1 3,25 A30 25 0 0 0 33,12.5 A30 25 0 0 0 3,0" class="cell_$abc$169$auto$blifparse.cc:396:parse_blif$178"/>
    <path d="M0,0 A30 25 0 0 1 0,25" class="cell_$abc$169$auto$blifparse.cc:396:parse_blif$178"/>
    <g s:x="3" s:y="5" s:pid="A"/>
    <g s:x="3" s:y="20" s:pid="B"/>
    <g s:x="33" s:y="12.5" s:pid="Y"/>
  </g>
  <g s:type="nand" transform="translate(297,407)" s:width="30" s:height="25" id="cell_$abc$169$auto$blifparse.cc:396:parse_blif$179">
    <s:alias val="$nand"/>
    <s:alias val="$logic_nand"/>
    <s:alias val="$_NAND_"/>
    <s:alias val="$_ANDNOT_"/>
    <path d="M0,0 L0,25 L15,25 A15 12.5 0 0 0 15,0 Z" class="cell_$abc$169$auto$blifparse.cc:396:parse_blif$179"/>
    <circle cx="34" cy="12.5" r="3" class="cell_$abc$169$auto$blifparse.cc:396:parse_blif$179"/>
    <g s:x="0" s:y="5" s:pid="A"/>
    <g s:x="0" s:y="20" s:pid="B"/>
    <g s:x="36" s:y="12.5" s:pid="Y"/>
  </g>
  <g s:type="nand" transform="translate(368,349.5)" s:width="30" s:height="25" id="cell_$abc$169$auto$blifparse.cc:396:parse_blif$180">
    <s:alias val="$nand"/>
    <s:alias val="$logic_nand"/>
    <s:alias val="$_NAND_"/>
    <s:alias val="$_ANDNOT_"/>
    <path d="M0,0 L0,25 L15,25 A15 12.5 0 0 0 15,0 Z" class="cell_$abc$169$auto$blifparse.cc:396:parse_blif$180"/>
    <circle cx="34" cy="12.5" r="3" class="cell_$abc$169$auto$blifparse.cc:396:parse_blif$180"/>
    <g s:x="0" s:y="5" s:pid="A"/>
    <g s:x="0" s:y="20" s:pid="B"/>
    <g s:x="36" s:y="12.5" s:pid="Y"/>
  </g>
  <g s:type="nand" transform="translate(439,247)" s:width="30" s:height="25" id="cell_$abc$169$auto$blifparse.cc:396:parse_blif$181">
    <s:alias val="$nand"/>
    <s:alias val="$logic_nand"/>
    <s:alias val="$_NAND_"/>
    <s:alias val="$_ANDNOT_"/>
    <path d="M0,0 L0,25 L15,25 A15 12.5 0 0 0 15,0 Z" class="cell_$abc$169$auto$blifparse.cc:396:parse_blif$181"/>
    <circle cx="34" cy="12.5" r="3" class="cell_$abc$169$auto$blifparse.cc:396:parse_blif$181"/>
    <g s:x="0" s:y="5" s:pid="A"/>
    <g s:x="0" s:y="20" s:pid="B"/>
    <g s:x="36" s:y="12.5" s:pid="Y"/>
  </g>
  <g s:type="nand" transform="translate(515,129.5)" s:width="30" s:height="25" id="cell_$abc$169$auto$blifparse.cc:396:parse_blif$182">
    <s:alias val="$nand"/>
    <s:alias val="$logic_nand"/>
    <s:alias val="$_NAND_"/>
    <s:alias val="$_ANDNOT_"/>
    <path d="M0,0 L0,25 L15,25 A15 12.5 0 0 0 15,0 Z" class="cell_$abc$169$auto$blifparse.cc:396:parse_blif$182"/>
    <circle cx="34" cy="12.5" r="3" class="cell_$abc$169$auto$blifparse.cc:396:parse_blif$182"/>
    <g s:x="0" s:y="5" s:pid="A"/>
    <g s:x="0" s:y="20" s:pid="B"/>
    <g s:x="36" s:y="12.5" s:pid="Y"/>
  </g>
  <g s:type="reduce_xor" transform="translate(516,197)" s:width="33" s:height="25" id="cell_$abc$169$auto$blifparse.cc:396:parse_blif$183">
    <s:alias val="$xor"/>
    <s:alias val="$reduce_xor"/>
    <s:alias val="$_XOR_"/>
    <path d="M3,0 A30 25 0 0 1 3,25 A30 25 0 0 0 33,12.5 A30 25 0 0 0 3,0" class="cell_$abc$169$auto$blifparse.cc:396:parse_blif$183"/>
    <path d="M0,0 A30 25 0 0 1 0,25" class="cell_$abc$169$auto$blifparse.cc:396:parse_blif$183"/>
    <g s:x="3" s:y="5" s:pid="A"/>
    <g s:x="3" s:y="20" s:pid="B"/>
    <g s:x="33" s:y="12.5" s:pid="Y"/>
  </g>
  <g s:type="nand" transform="translate(586,137)" s:width="30" s:height="25" id="cell_$abc$169$auto$blifparse.cc:396:parse_blif$184">
    <s:alias val="$nand"/>
    <s:alias val="$logic_nand"/>
    <s:alias val="$_NAND_"/>
    <s:alias val="$_ANDNOT_"/>
    <path d="M0,0 L0,25 L15,25 A15 12.5 0 0 0 15,0 Z" class="cell_$abc$169$auto$blifparse.cc:396:parse_blif$184"/>
    <circle cx="34" cy="12.5" r="3" class="cell_$abc$169$auto$blifparse.cc:396:parse_blif$184"/>
    <g s:x="0" s:y="5" s:pid="A"/>
    <g s:x="0" s:y="20" s:pid="B"/>
    <g s:x="36" s:y="12.5" s:pid="Y"/>
  </g>
  <g s:type="nand" transform="translate(657,84.5)" s:width="30" s:height="25" id="cell_$abc$169$auto$blifparse.cc:396:parse_blif$185">
    <s:alias val="$nand"/>
    <s:alias val="$logic_nand"/>
    <s:alias val="$_NAND_"/>
    <s:alias val="$_ANDNOT_"/>
    <path d="M0,0 L0,25 L15,25 A15 12.5 0 0 0 15,0 Z" class="cell_$abc$169$auto$blifparse.cc:396:parse_blif$185"/>
    <circle cx="34" cy="12.5" r="3" class="cell_$abc$169$auto$blifparse.cc:396:parse_blif$185"/>
    <g s:x="0" s:y="5" s:pid="A"/>
    <g s:x="0" s:y="20" s:pid="B"/>
    <g s:x="36" s:y="12.5" s:pid="Y"/>
  </g>
  <g s:type="reduce_xor" transform="translate(658,19.5)" s:width="33" s:height="25" id="cell_$abc$169$auto$blifparse.cc:396:parse_blif$186">
    <s:alias val="$xor"/>
    <s:alias val="$reduce_xor"/>
    <s:alias val="$_XOR_"/>
    <path d="M3,0 A30 25 0 0 1 3,25 A30 25 0 0 0 33,12.5 A30 25 0 0 0 3,0" class="cell_$abc$169$auto$blifparse.cc:396:parse_blif$186"/>
    <path d="M0,0 A30 25 0 0 1 0,25" class="cell_$abc$169$auto$blifparse.cc:396:parse_blif$186"/>
    <g s:x="3" s:y="5" s:pid="A"/>
    <g s:x="3" s:y="20" s:pid="B"/>
    <g s:x="33" s:y="12.5" s:pid="Y"/>
  </g>
  <g s:type="reduce_xor" transform="translate(658,437)" s:width="33" s:height="25" id="cell_$abc$169$auto$blifparse.cc:396:parse_blif$187">
    <s:alias val="$xor"/>
    <s:alias val="$reduce_xor"/>
    <s:alias val="$_XOR_"/>
    <path d="M3,0 A30 25 0 0 1 3,25 A30 25 0 0 0 33,12.5 A30 25 0 0 0 3,0" class="cell_$abc$169$auto$blifparse.cc:396:parse_blif$187"/>
    <path d="M0,0 A30 25 0 0 1 0,25" class="cell_$abc$169$auto$blifparse.cc:396:parse_blif$187"/>
    <g s:x="3" s:y="5" s:pid="A"/>
    <g s:x="3" s:y="20" s:pid="B"/>
    <g s:x="33" s:y="12.5" s:pid="Y"/>
  </g>
  <g s:type="reduce_xor" transform="translate(658,342)" s:width="33" s:height="25" id="cell_$abc$169$auto$blifparse.cc:396:parse_blif$188">
    <s:alias val="$xor"/>
    <s:alias val="$reduce_xor"/>
    <s:alias val="$_XOR_"/>
    <path d="M3,0 A30 25 0 0 1 3,25 A30 25 0 0 0 33,12.5 A30 25 0 0 0 3,0" class="cell_$abc$169$auto$blifparse.cc:396:parse_blif$188"/>
    <path d="M0,0 A30 25 0 0 1 0,25" class="cell_$abc$169$auto$blifparse.cc:396:parse_blif$188"/>
    <g s:x="3" s:y="5" s:pid="A"/>
    <g s:x="3" s:y="20" s:pid="B"/>
    <g s:x="33" s:y="12.5" s:pid="Y"/>
  </g>
  <g s:type="reduce_xor" transform="translate(658,167)" s:width="33" s:height="25" id="cell_$abc$169$auto$blifparse.cc:396:parse_blif$189">
    <s:alias val="$xor"/>
    <s:alias val="$reduce_xor"/>
    <s:alias val="$_XOR_"/>
    <path d="M3,0 A30 25 0 0 1 3,25 A30 25 0 0 0 33,12.5 A30 25 0 0 0 3,0" class="cell_$abc$169$auto$blifparse.cc:396:parse_blif$189"/>
    <path d="M0,0 A30 25 0 0 1 0,25" class="cell_$abc$169$auto$blifparse.cc:396:parse_blif$189"/>
    <g s:x="3" s:y="5" s:pid="A"/>
    <g s:x="3" s:y="20" s:pid="B"/>
    <g s:x="33" s:y="12.5" s:pid="Y"/>
  </g>
  <g s:type="inputExt" transform="translate(12,387)" s:width="30" s:height="20" id="cell_A_0">
    <text x="15" y="-4" class="nodelabel cell_A_0" s:attribute="ref">A_0</text>
    <s:alias val="$_inputExt_"/>
    <path d="M0,0 L0,20 L15,20 L30,10 L15,0 Z" class="cell_A_0"/>
    <g s:x="28" s:y="10" s:pid="Y"/>
  </g>
  <g s:type="inputExt" transform="translate(150,337)" s:width="30" s:height="20" id="cell_A_1">
    <text x="15" y="-4" class="nodelabel cell_A_1" s:attribute="ref">A_1</text>
    <s:alias val="$_inputExt_"/>
    <path d="M0,0 L0,20 L15,20 L30,10 L15,0 Z" class="cell_A_1"/>
    <g s:x="28" s:y="10" s:pid="Y"/>
  </g>
  <g s:type="inputExt" transform="translate(297,117)" s:width="30" s:height="20" id="cell_A_2">
    <text x="15" y="-4" class="nodelabel cell_A_2" s:attribute="ref">A_2</text>
    <s:alias val="$_inputExt_"/>
    <path d="M0,0 L0,20 L15,20 L30,10 L15,0 Z" class="cell_A_2"/>
    <g s:x="28" s:y="10" s:pid="Y"/>
  </g>
  <g s:type="inputExt" transform="translate(439,192)" s:width="30" s:height="20" id="cell_A_3">
    <text x="15" y="-4" class="nodelabel cell_A_3" s:attribute="ref">A_3</text>
    <s:alias val="$_inputExt_"/>
    <path d="M0,0 L0,20 L15,20 L30,10 L15,0 Z" class="cell_A_3"/>
    <g s:x="28" s:y="10" s:pid="Y"/>
  </g>
  <g s:type="inputExt" transform="translate(12,584.5)" s:width="30" s:height="20" id="cell_B_0">
    <text x="15" y="-4" class="nodelabel cell_B_0" s:attribute="ref">B_0</text>
    <s:alias val="$_inputExt_"/>
    <path d="M0,0 L0,20 L15,20 L30,10 L15,0 Z" class="cell_B_0"/>
    <g s:x="28" s:y="10" s:pid="Y"/>
  </g>
  <g s:type="inputExt" transform="translate(150,469.5)" s:width="30" s:height="20" id="cell_B_1">
    <text x="15" y="-4" class="nodelabel cell_B_1" s:attribute="ref">B_1</text>
    <s:alias val="$_inputExt_"/>
    <path d="M0,0 L0,20 L15,20 L30,10 L15,0 Z" class="cell_B_1"/>
    <g s:x="28" s:y="10" s:pid="Y"/>
  </g>
  <g s:type="inputExt" transform="translate(297,182)" s:width="30" s:height="20" id="cell_B_2">
    <text x="15" y="-4" class="nodelabel cell_B_2" s:attribute="ref">B_2</text>
    <s:alias val="$_inputExt_"/>
    <path d="M0,0 L0,20 L15,20 L30,10 L15,0 Z" class="cell_B_2"/>
    <g s:x="28" s:y="10" s:pid="Y"/>
  </g>
  <g s:type="inputExt" transform="translate(439,317)" s:width="30" s:height="20" id="cell_B_3">
    <text x="15" y="-4" class="nodelabel cell_B_3" s:attribute="ref">B_3</text>
    <s:alias val="$_inputExt_"/>
    <path d="M0,0 L0,20 L15,20 L30,10 L15,0 Z" class="cell_B_3"/>
    <g s:x="28" s:y="10" s:pid="Y"/>
  </g>
  <g s:type="inputExt" transform="translate(80,519.5)" s:width="30" s:height="20" id="cell_C_in">
    <text x="15" y="-4" class="nodelabel cell_C_in" s:attribute="ref">C_in</text>
    <s:alias val="$_inputExt_"/>
    <path d="M0,0 L0,20 L15,20 L30,10 L15,0 Z" class="cell_C_in"/>
    <g s:x="28" s:y="10" s:pid="Y"/>
  </g>
  <g s:type="outputExt" transform="translate(728,87)" s:width="30" s:height="20" id="cell_C_out">
    <text x="15" y="-4" class="nodelabel cell_C_out" s:attribute="ref">C_out</text>
    <s:alias val="$_outputExt_"/>
    <path d="M30,0 L30,20 L15,20 L0,10 L15,0 Z" class="cell_C_out"/>
    <g s:x="0" s:y="10" s:pid="A"/>
  </g>
  <g s:type="outputExt" transform="translate(728,22)" s:width="30" s:height="20" id="cell_sum_0">
    <text x="15" y="-4" class="nodelabel cell_sum_0" s:attribute="ref">sum_0</text>
    <s:alias val="$_outputExt_"/>
    <path d="M30,0 L30,20 L15,20 L0,10 L15,0 Z" class="cell_sum_0"/>
    <g s:x="0" s:y="10" s:pid="A"/>
  </g>
  <g s:type="outputExt" transform="translate(728,439.5)" s:width="30" s:height="20" id="cell_sum_1">
    <text x="15" y="-4" class="nodelabel cell_sum_1" s:attribute="ref">sum_1</text>
    <s:alias val="$_outputExt_"/>
    <path d="M30,0 L30,20 L15,20 L0,10 L15,0 Z" class="cell_sum_1"/>
    <g s:x="0" s:y="10" s:pid="A"/>
  </g>
  <g s:type="outputExt" transform="translate(728,344.5)" s:width="30" s:height="20" id="cell_sum_2">
    <text x="15" y="-4" class="nodelabel cell_sum_2" s:attribute="ref">sum_2</text>
    <s:alias val="$_outputExt_"/>
    <path d="M30,0 L30,20 L15,20 L0,10 L15,0 Z" class="cell_sum_2"/>
    <g s:x="0" s:y="10" s:pid="A"/>
  </g>
  <g s:type="outputExt" transform="translate(728,169.5)" s:width="30" s:height="20" id="cell_sum_3">
    <text x="15" y="-4" class="nodelabel cell_sum_3" s:attribute="ref">sum_3</text>
    <s:alias val="$_outputExt_"/>
    <path d="M30,0 L30,20 L15,20 L0,10 L15,0 Z" class="cell_sum_3"/>
    <g s:x="0" s:y="10" s:pid="A"/>
  </g>
  <line x1="467" x2="485" y1="202" y2="202" class="net_5"/>
  <line x1="485" x2="485" y1="202" y2="82" class="net_5"/>
  <circle cx="485" cy="202" r="2" style="fill:#000" class="net_5"/>
  <line x1="485" x2="586" y1="82" y2="82" class="net_5"/>
  <line x1="467" x2="519" y1="202" y2="202" class="net_5"/>
  <line x1="467" x2="505" y1="327" y2="327" class="net_9"/>
  <line x1="505" x2="505" y1="327" y2="97" class="net_9"/>
  <line x1="505" x2="586" y1="97" y2="97" class="net_9"/>
  <line x1="467" x2="505" y1="327" y2="327" class="net_9"/>
  <line x1="505" x2="505" y1="327" y2="217" class="net_9"/>
  <circle cx="505" cy="217" r="2" style="fill:#000" class="net_9"/>
  <line x1="505" x2="519" y1="217" y2="217" class="net_9"/>
  <line x1="325" x2="439" y1="127" y2="127" class="net_4"/>
  <line x1="325" x2="353" y1="127" y2="127" class="net_4"/>
  <line x1="353" x2="353" y1="127" y2="244.5" class="net_4"/>
  <circle cx="353" cy="127" r="2" style="fill:#000" class="net_4"/>
  <line x1="353" x2="372" y1="244.5" y2="244.5" class="net_4"/>
  <line x1="325" x2="414" y1="192" y2="192" class="net_8"/>
  <line x1="414" x2="414" y1="192" y2="142" class="net_8"/>
  <line x1="414" x2="439" y1="142" y2="142" class="net_8"/>
  <line x1="325" x2="343" y1="192" y2="192" class="net_8"/>
  <line x1="343" x2="343" y1="192" y2="259.5" class="net_8"/>
  <circle cx="343" cy="192" r="2" style="fill:#000" class="net_8"/>
  <line x1="343" x2="372" y1="259.5" y2="259.5" class="net_8"/>
  <line x1="178" x2="297" y1="347" y2="347" class="net_3"/>
  <line x1="178" x2="216" y1="347" y2="347" class="net_3"/>
  <line x1="216" x2="216" y1="347" y2="464.5" class="net_3"/>
  <circle cx="216" cy="347" r="2" style="fill:#000" class="net_3"/>
  <line x1="216" x2="230" y1="464.5" y2="464.5" class="net_3"/>
  <line x1="178" x2="196" y1="479.5" y2="479.5" class="net_7"/>
  <line x1="196" x2="196" y1="479.5" y2="362" class="net_7"/>
  <circle cx="196" cy="479.5" r="2" style="fill:#000" class="net_7"/>
  <line x1="196" x2="297" y1="362" y2="362" class="net_7"/>
  <line x1="178" x2="230" y1="479.5" y2="479.5" class="net_7"/>
  <line x1="40" x2="150" y1="397" y2="397" class="net_2"/>
  <line x1="40" x2="52" y1="397" y2="397" class="net_2"/>
  <line x1="52" x2="52" y1="397" y2="579.5" class="net_2"/>
  <circle cx="52" cy="397" r="2" style="fill:#000" class="net_2"/>
  <line x1="52" x2="80" y1="579.5" y2="579.5" class="net_2"/>
  <line x1="40" x2="52" y1="594.5" y2="594.5" class="net_6"/>
  <line x1="52" x2="52" y1="594.5" y2="609.5" class="net_6"/>
  <line x1="52" x2="140" y1="609.5" y2="609.5" class="net_6"/>
  <line x1="140" x2="140" y1="609.5" y2="412" class="net_6"/>
  <circle cx="52" cy="594.5" r="2" style="fill:#000" class="net_6"/>
  <line x1="140" x2="150" y1="412" y2="412" class="net_6"/>
  <line x1="40" x2="80" y1="594.5" y2="594.5" class="net_6"/>
  <line x1="108" x2="150" y1="529.5" y2="529.5" class="net_10"/>
  <line x1="108" x2="120" y1="529.5" y2="529.5" class="net_10"/>
  <line x1="120" x2="120" y1="529.5" y2="24.5" class="net_10"/>
  <circle cx="120" cy="529.5" r="2" style="fill:#000" class="net_10"/>
  <line x1="120" x2="661" y1="24.5" y2="24.5" class="net_10"/>
  <line x1="110" x2="130" y1="587" y2="587" class="net_21"/>
  <line x1="130" x2="130" y1="587" y2="544.5" class="net_21"/>
  <circle cx="130" cy="544.5" r="2" style="fill:#000" class="net_21"/>
  <line x1="130" x2="150" y1="544.5" y2="544.5" class="net_21"/>
  <line x1="110" x2="130" y1="587" y2="587" class="net_21"/>
  <line x1="130" x2="130" y1="587" y2="39.5" class="net_21"/>
  <line x1="130" x2="661" y1="39.5" y2="39.5" class="net_21"/>
  <line x1="186" x2="226" y1="404.5" y2="404.5" class="net_20"/>
  <line x1="186" x2="206" y1="537" y2="537" class="net_22"/>
  <line x1="206" x2="206" y1="537" y2="419.5" class="net_22"/>
  <line x1="206" x2="226" y1="419.5" y2="419.5" class="net_22"/>
  <line x1="262" x2="297" y1="412" y2="412" class="net_23"/>
  <line x1="262" x2="282" y1="412" y2="412" class="net_23"/>
  <line x1="282" x2="282" y1="412" y2="442" class="net_23"/>
  <circle cx="282" cy="412" r="2" style="fill:#000" class="net_23"/>
  <line x1="282" x2="661" y1="442" y2="442" class="net_23"/>
  <line x1="260" x2="272" y1="472" y2="472" class="net_24"/>
  <line x1="272" x2="272" y1="472" y2="427" class="net_24"/>
  <circle cx="272" cy="472" r="2" style="fill:#000" class="net_24"/>
  <line x1="272" x2="297" y1="427" y2="427" class="net_24"/>
  <line x1="260" x2="632" y1="472" y2="472" class="net_24"/>
  <line x1="632" x2="632" y1="472" y2="457" class="net_24"/>
  <line x1="632" x2="661" y1="457" y2="457" class="net_24"/>
  <line x1="333" x2="368" y1="354.5" y2="354.5" class="net_19"/>
  <line x1="333" x2="343" y1="419.5" y2="419.5" class="net_25"/>
  <line x1="343" x2="343" y1="419.5" y2="369.5" class="net_25"/>
  <line x1="343" x2="368" y1="369.5" y2="369.5" class="net_25"/>
  <line x1="402" x2="439" y1="252" y2="252" class="net_18"/>
  <line x1="402" x2="424" y1="252" y2="252" class="net_18"/>
  <line x1="424" x2="424" y1="252" y2="347" class="net_18"/>
  <circle cx="424" cy="252" r="2" style="fill:#000" class="net_18"/>
  <line x1="424" x2="661" y1="347" y2="347" class="net_18"/>
  <line x1="404" x2="414" y1="362" y2="362" class="net_26"/>
  <line x1="414" x2="414" y1="362" y2="267" class="net_26"/>
  <circle cx="414" cy="362" r="2" style="fill:#000" class="net_26"/>
  <line x1="414" x2="439" y1="267" y2="267" class="net_26"/>
  <line x1="404" x2="661" y1="362" y2="362" class="net_26"/>
  <line x1="475" x2="515" y1="134.5" y2="134.5" class="net_17"/>
  <line x1="475" x2="495" y1="259.5" y2="259.5" class="net_27"/>
  <line x1="495" x2="495" y1="259.5" y2="149.5" class="net_27"/>
  <line x1="495" x2="515" y1="149.5" y2="149.5" class="net_27"/>
  <line x1="551" x2="586" y1="142" y2="142" class="net_28"/>
  <line x1="551" x2="571" y1="142" y2="142" class="net_28"/>
  <line x1="571" x2="571" y1="142" y2="172" class="net_28"/>
  <circle cx="571" cy="142" r="2" style="fill:#000" class="net_28"/>
  <line x1="571" x2="661" y1="172" y2="172" class="net_28"/>
  <line x1="549" x2="561" y1="209.5" y2="209.5" class="net_29"/>
  <line x1="561" x2="561" y1="209.5" y2="157" class="net_29"/>
  <circle cx="561" cy="209.5" r="2" style="fill:#000" class="net_29"/>
  <line x1="561" x2="586" y1="157" y2="157" class="net_29"/>
  <line x1="549" x2="632" y1="209.5" y2="209.5" class="net_29"/>
  <line x1="632" x2="632" y1="209.5" y2="187" class="net_29"/>
  <line x1="632" x2="661" y1="187" y2="187" class="net_29"/>
  <line x1="622" x2="657" y1="89.5" y2="89.5" class="net_16"/>
  <line x1="622" x2="632" y1="149.5" y2="149.5" class="net_30"/>
  <line x1="632" x2="632" y1="149.5" y2="104.5" class="net_30"/>
  <line x1="632" x2="657" y1="104.5" y2="104.5" class="net_30"/>
  <line x1="693" x2="728" y1="97" y2="97" class="net_11"/>
  <line x1="691" x2="728" y1="32" y2="32" class="net_12"/>
  <line x1="691" x2="728" y1="449.5" y2="449.5" class="net_13"/>
  <line x1="691" x2="728" y1="354.5" y2="354.5" class="net_14"/>
  <line x1="691" x2="728" y1="179.5" y2="179.5" class="net_15"/>
</svg>
